<svg width="511.996" height="511.996" xmlns="http://www.w3.org/2000/svg">

 <g>
  <title>background</title>
  <rect fill="none" id="canvas_background" height="402" width="582" y="-1" x="-1"/>
 </g>
 <g>
  <title>Layer 1</title>
  <g id="svg_1">
   <g id="svg_2">
    <g id="svg_3">
     <path id="svg_4" d="m330.952362,68.991943c-9.025604,-3.943115 -19.53833,0.177216 -23.481476,9.202827c-3.943115,9.025612 0.177246,19.538361 9.20285,23.481468c58.024048,25.348969 96.323334,82.738541 96.323334,147.154144c0,88.637787 -71.867188,160.499939 -160.499908,160.499939c-88.644424,0 -160.499901,-71.855469 -160.499901,-160.499939c0,-64.401398 38.285912,-121.790985 96.293251,-147.156647c9.023941,-3.945618 13.14093,-14.46003 9.194473,-23.483971c-3.945618,-9.023941 -14.460037,-13.140938 -23.483978,-9.194481c-70.878265,30.992363 -117.669838,101.132492 -117.669838,179.834305c0,108.342438 87.824379,196.16684 196.166847,196.16684c108.330719,0 196.16684,-87.830231 196.16684,-196.16684c0,-78.7202 -46.810822,-148.863678 -117.712494,-179.837646z"/>
     <path id="svg_5" d="m252.490479,213.16684c9.848999,0 17.833038,-7.984024 17.833038,-17.833038l0,-160.499912c0.000824,-9.849854 -7.984039,-17.833889 -17.833038,-17.833889c-9.849014,0 -17.833038,7.984035 -17.833038,17.833046l0,160.499901c0,9.849014 7.984024,17.833893 17.833038,17.833893z"/>
    </g>
   </g>
  </g>
  <g id="svg_6"/>
  <g id="svg_7"/>
  <g id="svg_8"/>
  <g id="svg_9"/>
  <g id="svg_10"/>
  <g id="svg_11"/>
  <g id="svg_12"/>
  <g id="svg_13"/>
  <g id="svg_14"/>
  <g id="svg_15"/>
  <g id="svg_16"/>
  <g id="svg_17"/>
  <g id="svg_18"/>
  <g id="svg_19"/>
  <g id="svg_20"/>
 </g>
</svg>